# xmcd
#
# Track frame offsets: 
#        150
#        25053
#        49415
#        66545
#        95602
#        125944
#        144000
#        162342
#        191524
#        210796
#        233940
#        264699
#        282237
#
# Disc length: 3951 seconds
#
# Revision: 13
# Processed by: cddbd v1.5.2PL0 Copyright (c) Steve Scherf et al.
# Submitted via: ExactAudioCopy v1.0b4
#
DISCID=c20f6d0d
DTITLE=METALLICA - Metallica
DYEAR=1991
DGENRE=Metal
TTITLE0=Enter Sandman
TTITLE1=Sad But True
TTITLE2=Holier Than Thou
TTITLE3=The Unforgiven
TTITLE4=Wherever I May Roam
TTITLE5=Don't Tread On Me
TTITLE6=Through The Never
TTITLE7=Nothing Else Matters
TTITLE8=Of Wolf And Man
TTITLE9=The God That Failed
TTITLE10=My Friend Of Misery
TTITLE11=The Struggle Within
TTITLE12=So What
EXTD=YEAR: 1991
EXTT0=
EXTT1=
EXTT2=
EXTT3=
EXTT4=
EXTT5=
EXTT6=
EXTT7=
EXTT8=
EXTT9=
EXTT10=
EXTT11=
EXTT12=
PLAYORDER=
